<svg xmlns="http://www.w3.org/2000/svg" width="32" height="32" viewBox="835 200 1150 1150" preserveAspectRatio="xMidYMid meet">
  <g transform="translate(0,1536) scale(0.1,-0.1)" fill="#2563EB">
    <path d="M11100 13003c-353-23-527-48-704-100-384-111-689-290-980-572-209-204-343-388-465-636-161-327-226-582-251-982-14-227-14-5844 0-6098 18-328 46-495 120-709 102-295 239-537 434-763 361-420 846-688 1386-767 233-34 441-36 3424-36 2968 0 3229 3 3456 36 903 130 1644 803 1871 1697 51 202 68 370 80 792 14 525 6 5711-10 5885-33 372-100 632-235 915-309 646-896 1118-1578 1269-142 31-315 52-535 66-153 9-5880 12-6013 3zm3340-1713c140-107 323-246 407-309 84-64 151-119 150-123-3-12-1066-858-1077-858-7 0-8 91-4 256l7 255-64-6c-266-25-431-59-661-135-193-64-422-170-573-265-601-381-1046-973-1238-1645-185-649-144-1305 122-1925 217-504 590-948 1065-1265 185-124 458-255 664-321 39-13 72-26 72-30 0-5-509-421-556-454-11-7-54 10-167 67-1225 619-1990 1891-1943 3233 20 597 181 1164 469 1660 291 502 749 965 1239 1257 160 94 436 226 591 282 281 102 692 186 904 186l63 0 0 263c0 145 3 266 6 269 3 4 65-40 137-96 73-56 247-190 387-296z m1158-494c521-264 956-647 1310-1154 173-249 342-590 435-878 70-216 129-488 159-729 19-159 16-602-5-775-49-390-158-759-327-1105-330-676-826-1198-1494-1571-403-224-825-353-1300-396l-136-12-2-262-3-262-280 211c-710 535-795 601-795 606 0 8 1065 861 1074 861 3 0 6-115 6-255l0-255 36 0c75 0 335 43 480 80 188 48 308 92 499 184 577 278 1041 733 1321 1296 338 677 401 1381 189 2110-82 282-185 499-371 780-110 167-194 270-344 421-322 324-681 552-1069 679-63 20-116 41-118 46-3 10 151 139 421 354 77 60 141 110 143 110 2 0 79-38 171-84z m-2419-1063c130-58 385-173 566-255 182-82 367-166 413-186 80-36 82-37 82-72l0-35-150-72-150-71-152 70c-84 38-306 141-494 229-187 87-344 159-347 159-4 0-7-920-7-2045 0-1307-3-2045-10-2045-25 0-304 182-405 264-211 171-438 426-549 616l-36 61 0 1312c1 1040 4 1319 14 1348 29 83 196 296 376 483 114 118 132 133 210 169 177 83 385 177 394 177 4 0 114-48 245-107z m2331-497c157-69 380-165 495-214l210-90 3-1294 2-1295-79-119c-170-257-391-480-657-664-80-56-241-150-255-150-5 0-9 711-9 1804l0 1805-172-83c-95-46-211-100-258-121-47-21-190-89-317-151l-233-112 0-1450 0-1449-150-119c-82-65-154-120-160-122-7-3-9 512-8 1670l3 1673 85 42c47 24 234 111 415 194 182 84 434 201 560 260 127 59 232 108 235 108 3 1 133-55 290-123z m-2072-309l163-62 3-209c2-116 0-219-3-231-6-21-11-20-171 41l-165 62-3 231c-1 127 1 231 5 231 5-1 81-29 171-63z m1462-658l0-230-34-14c-99-42-300-104-306-95-6 10-5 439 1 444 2 2 40 17 84 34 44 18 114 45 155 61 41 16 81 30 88 30 9 1 12-51 12-230zm-1465-104c82-30 153-59 158-64 10-10 19-448 9-455-4-2-82 23-175 56l-167 60 0 229c0 177 3 229 13 229 6 0 79-25 162-55z m1465-664c0-163-3-221-12-229-18-14-319-123-327-118-3 2-4 107-1 232l5 229 150 52c83 28 158 52 168 52 16 1 17-16 17-218zm-1445-108c72-25 135-49 140-54 10-8 14-444 4-454-3-2-79 19-169 48l-165 53-3 233-2 233 32-7c18-4 92-28 163-52z m1443-658l-3-236-165-54c-91-30-166-55-167-55-2 0-3 103-3 228l0 229 163 60c89 33 165 61 170 62 4 0 6-105 5-234z"/>
    <path d="M12438 8927l-168-61 0-218c0-169 3-217 13-213 6 2 83 27 170 55l157 52 0 224c0 123-1 224-2 223-2 0-78-28-170-62z"/>
    <path d="M12530 8190c-30-11-101-33-157-50l-103-32 0-219c0-183 2-219 14-219 8 0 85 23 170 50l156 51 0 219c0 170-3 220-12 219-7 0-38-9-68-19z"/>
    <path d="M12438 7397l-168-50 0-222 0-223 166 49c92 26 168 50 170 52 3 2 3 103 2 224l-3 220-167-50z"/>
    <path d="M15550 8276l0-225 162-52c90-28 166-53 171-56 4-2 7 97 7 221l0 224-157 53c-87 28-163 54-170 56-9 4-12-50-13-221z"/>
    <path d="M15555 7503l0-218 138-41c75-24 151-45 167-49l30-7 0 220 0 219-153 46c-84 26-160 47-168 47-12 0-14-35-14-217z"/>
    <path d="M15556 6788c-4-95-5-194-4-221l2-47 66-20c124-36 249-70 259-70 8 0 11 72 11 219l0 218-147 43c-82 23-155 45-164 47-15 4-17-15-23-169z"/>
  </g>
</svg>
